<svg id="svg" xmlns="http://www.w3.org/2000/svg" xmlns:xlink="http://www.w3.org/1999/xlink" width="400" height="400" viewBox="0, 0, 400,400"><g id="svgg"><path id="path0" d="M289.453 3.024 C 285.649 5.386,285.025 6.293,255.484 52.344 C 239.911 76.621,227.071 96.592,226.952 96.724 C 226.552 97.165,206.899 101.530,192.802 104.309 C 184.997 105.847,174.300 107.366,168.526 107.756 C 155.250 108.654,152.125 109.803,131.055 121.538 L 114.527 130.743 98.781 114.643 C 90.120 105.788,79.811 94.887,75.870 90.419 C 66.024 79.252,59.404 76.148,53.579 79.965 C 46.690 84.479,52.633 96.743,80.647 135.827 C 99.581 162.243,105.730 168.559,111.732 167.754 C 114.628 167.365,136.492 157.899,149.495 151.404 C 152.869 149.718,155.702 148.449,155.788 148.583 C 156.019 148.941,169.536 211.221,169.534 211.914 C 169.526 213.784,194.829 211.352,207.452 208.269 C 221.091 204.939,237.141 198.234,242.113 193.791 L 244.345 191.797 249.154 155.879 L 253.963 119.962 266.745 94.942 C 301.583 26.751,306.236 16.844,306.246 10.848 C 306.257 3.766,295.973 -1.025,289.453 3.024 M353.125 14.653 C 353.125 66.171,327.471 119.452,288.519 148.833 C 284.820 151.623,281.495 153.906,281.131 153.906 C 279.814 153.906,280.535 155.773,284.180 161.795 C 288.710 169.283,288.444 169.277,298.025 162.128 C 340.069 130.759,366.463 77.768,369.232 19.162 L 369.757 8.053 367.203 7.542 C 365.798 7.261,362.056 7.031,358.887 7.031 L 353.125 7.031 353.125 14.653 M174.161 35.377 C 147.238 46.734,152.628 86.375,181.515 89.468 C 208.245 92.331,223.372 59.299,203.741 40.936 C 196.093 33.782,183.536 31.422,174.161 35.377 M278.218 188.691 C 275.614 189.903,272.048 192.661,268.843 195.941 C 249.011 216.242,211.336 229.965,169.248 232.219 L 165.450 232.422 156.093 255.078 C 118.901 345.129,108.592 373.161,108.595 384.228 C 108.599 398.718,122.485 402.609,131.861 390.747 C 135.839 385.715,184.253 290.667,189.077 278.417 C 189.650 276.963,190.586 276.690,196.623 276.220 C 205.564 275.525,215.101 273.897,223.619 271.613 L 230.442 269.783 230.651 333.006 L 230.859 396.229 233.051 398.115 C 235.656 400.355,240.152 400.635,242.877 398.726 C 246.945 395.877,246.875 397.118,246.875 327.915 L 246.875 263.593 250.195 261.949 C 252.021 261.045,258.761 256.229,265.173 251.246 C 271.584 246.264,277.033 242.188,277.282 242.188 C 277.531 242.189,280.505 252.824,283.890 265.821 C 294.792 307.673,298.066 315.849,305.592 320.023 C 316.631 326.146,322.022 313.105,318.078 289.815 C 317.171 284.460,313.610 262.372,310.164 240.731 C 306.336 216.685,303.342 200.127,302.464 198.152 C 297.830 187.726,288.289 184.003,278.218 188.691 " stroke="none" fill="#000000" fill-rule="evenodd"></path></g></svg>